<svg xmlns="http://www.w3.org/2000/svg" viewBox="0 0 512 512"><defs><linearGradient id="bg" x1="0" y1="0" x2="1" y2="1"><stop offset="0" stop-color="#1d2645"/><stop offset="1" stop-color="#0b1020"/></linearGradient></defs><rect width="512" height="512" rx="112" fill="url(#bg)"/><circle cx="256" cy="272" r="191.84" fill="#252d4a"/><path d="M256 272 L188.65 109.40 A176 176 0 0 1 323.35 109.40 Z" fill="#e63946"/><path d="M256 272 L323.35 109.40 A176 176 0 0 1 418.60 204.65 Z" fill="#f4a261"/><path d="M256 272 L418.60 204.65 A176 176 0 0 1 418.60 339.35 Z" fill="#e9c46a"/><path d="M256 272 L418.60 339.35 A176 176 0 0 1 323.35 434.60 Z" fill="#2a9d8f"/><path d="M256 272 L323.35 434.60 A176 176 0 0 1 188.65 434.60 Z" fill="#3a86ff"/><path d="M256 272 L188.65 434.60 A176 176 0 0 1 93.40 339.35 Z" fill="#8338ec"/><path d="M256 272 L93.40 339.35 A176 176 0 0 1 93.40 204.65 Z" fill="#ff5d8f"/><path d="M256 272 L93.40 204.65 A176 176 0 0 1 188.65 109.40 Z" fill="#06d6a0"/><circle cx="256" cy="272" r="176" fill="none" stroke="#ffffff" stroke-opacity=".35" stroke-width="3.52"/><circle cx="439.92" cy="272.00" r="4.44" fill="#fff4c2"/><circle cx="415.28" cy="363.96" r="4.44" fill="#fff4c2"/><circle cx="347.96" cy="431.28" r="4.44" fill="#fff4c2"/><circle cx="256.00" cy="455.92" r="4.44" fill="#fff4c2"/><circle cx="164.04" cy="431.28" r="4.44" fill="#fff4c2"/><circle cx="96.72" cy="363.96" r="4.44" fill="#fff4c2"/><circle cx="72.08" cy="272.00" r="4.44" fill="#fff4c2"/><circle cx="96.72" cy="180.04" r="4.44" fill="#fff4c2"/><circle cx="164.04" cy="112.72" r="4.44" fill="#fff4c2"/><circle cx="256.00" cy="88.08" r="4.44" fill="#fff4c2"/><circle cx="347.96" cy="112.72" r="4.44" fill="#fff4c2"/><circle cx="415.28" cy="180.04" r="4.44" fill="#fff4c2"/><circle cx="256" cy="272" r="42.24" fill="#fbbf24" stroke="#fff7d6" stroke-width="10.56"/><path d="M256 134.72 L233.12 62.56 L278.88 62.56 Z" fill="#fbbf24" stroke="#fff7d6" stroke-width="6.16" stroke-linejoin="round"/></svg>
